<svg xmlns="http://www.w3.org/2000/svg" xmlns:xlink="http://www.w3.org/1999/xlink" version="1.1" id="Calque_1" x="0px" y="0px" viewBox="4.5 -9.0 90.0 121.5" enable-background="new 0 0 90 90" xml:space="preserve" height="100px" width="100px">
<g>
	<path fill="#000000" d="M80.4,52.6l-3.1-5.4c-0.7,4.9-2.7,8.5-5.1,8.5v-24c1,0,1.9,0.6,2.6,1.6V28c0-15.5-12.5-28-28-28h-4.6   c-15.5,0-28,12.5-28,28v5.4c0.8-1,1.7-1.6,2.6-1.6v24c-2.4,0-4.4-3.6-5.1-8.5l-3.1,5.4C3,62.9,6.7,71.6,17,73.8   C21.4,83.4,31.1,90,42.3,90h4.6c11.2,0,20.9-6.6,25.4-16.2C82.6,71.6,86.3,62.9,80.4,52.6z M45.4,83.8h-1.6   c-5.7,0-10.3-4.6-10.3-10.3v-5.8c3.6-0.8,7.3-3.1,11-3.1c3.7,0,7.4,2.3,11.1,3.1v5.8C55.7,79.2,51.1,83.8,45.4,83.8z M66.7,50.3   c0,6.7-4.2,12.3-10.2,14.5c-0.5-0.8-1.5-1.6-2.4-1.8c-6.3-1.1-12.7-1.1-19,0c-0.9,0.2-1.9,0.9-2.4,1.7c-5.9-2.2-10-7.8-10-14.5   V34.8c0-4.9,5.6-9,12.4-9c3.9,0,7.3,1.3,9.6,3.3c2.3-2,5.7-3.3,9.6-3.3c6.8,0,12.4,4,12.4,9V50.3z"/>
	<path fill="#000000" d="M42.5,49c-2-1.3-3.9-1-4.2,0.8c-0.4,1.7,1.3,2.8,3.6,2.4C44.2,51.7,44.5,50.3,42.5,49z"/>
	<path fill="#000000" d="M46.9,49c-2,1.3-1.7,2.7,0.6,3.2c2.3,0.4,3.9-0.6,3.6-2.4C50.7,48.1,48.8,47.7,46.9,49z"/>
	<path fill="#000000" d="M33.5,35.9c-3.1,0-5.6,2.5-5.6,5.6H39C39,38.4,36.5,35.9,33.5,35.9z"/>
	<path fill="#000000" d="M55.7,35.9c-3.1,0-5.6,2.5-5.6,5.6h11.1C61.3,38.4,58.8,35.9,55.7,35.9z"/>
</g>
<text x="0.0" y="105.75" font-size="4.5" font-weight="bold" font-family="Helvetica Neue, Helvetica, Arial-Unicode, Arial, Sans-serif" fill="#000000">Created by Vincent Montagnana</text><text x="0.0" y="110.25" font-size="4.5" font-weight="bold" font-family="Helvetica Neue, Helvetica, Arial-Unicode, Arial, Sans-serif" fill="#000000">from the Noun Project</text></svg>