<svg xmlns="http://www.w3.org/2000/svg" xmlns:xlink="http://www.w3.org/1999/xlink" version="1.1" id="Capa_1" x="0px" y="0px" width="64px" height="64px" viewBox="3.2 -6.4 64.0 86.4" enable-background="new 0 0 64 64" xml:space="preserve">
<g>
	<path d="M49.161,21.709c0-2.806-2.278-14.34-17.869-14.34c-15.592,0-17.872,11.534-17.872,14.34c0,6.251,2.207,9.635,1.471,11.619   c-0.734,1.984-2.287,5.002-1.33,8.531s4.795,6.818,6.943,8.787c2.151,1.965,6.45,6.729,10.788,6.729   c4.339,0,8.638-4.766,10.785-6.729c2.149-1.969,5.989-5.258,6.944-8.787c0.957-3.529-0.597-6.547-1.33-8.531   C46.956,31.344,49.161,27.96,49.161,21.709z M42.827,33.152c-0.693,0.859-0.804,2.238-0.3,3.222c1.425,2.787,1.689,5.5,0.787,8.099   c-0.984,2.818-3.08,4.664-4.209,5.657c-0.172,0.151-0.385,0.341-0.445,0.405c-0.128,0.146-0.293,0.344-0.485,0.578   c-1.266,1.541-3.624,4.41-6.883,4.41c-3.264,0-5.62-2.873-6.889-4.416c-0.189-0.23-0.352-0.431-0.482-0.575   c-0.058-0.062-0.271-0.251-0.445-0.402c-1.127-0.993-3.223-2.839-4.205-5.657c-0.906-2.599-0.64-5.312,0.784-8.099   c0.502-0.983,0.394-2.362-0.301-3.222c-1.95-2.412-4.336-6.307-4.336-10.927c0-5.511,3.324-8.02,6.411-8.02   c1.216,0,2.409,0.374,3.446,1.081c3.829,2.612,5.482,2.893,6.016,2.893s2.189-0.28,6.018-2.893   c1.039-0.707,2.227-1.081,3.443-1.081c3.088,0,6.41,2.51,6.41,8.02C47.162,26.845,44.775,30.74,42.827,33.152z"/>
	<path d="M38.279,16.708c-2.868,1.956-5.37,3.191-6.987,3.191c-1.618,0-4.119-1.235-6.986-3.191   c-2.868-1.955-7.165-0.293-7.165,5.518c0,4.794,2.962,8.803,4.794,10.824c0.742,0.818,0.844,2.104,0.259,3.042   c-4.872,7.803,2.032,12.199,3.011,13.295c1.046,1.172,3.218,4.415,6.086,4.415s5.039-3.243,6.085-4.415   c0.979-1.096,7.883-5.492,3.013-13.295c-0.586-0.938-0.482-2.224,0.26-3.042c1.832-2.022,4.793-6.03,4.793-10.824   C45.441,16.416,41.146,14.753,38.279,16.708z M26.574,32.147c-0.77,0-1.396-0.625-1.396-1.395c0-0.769,0.625-1.395,1.396-1.395   s1.396,0.626,1.396,1.395C27.97,31.522,27.344,32.147,26.574,32.147z M29.72,40.816c-0.09,0.086-0.209,0.135-0.338,0.135   c-0.132,0-0.258-0.055-0.351-0.151c-0.091-0.095-0.14-0.22-0.136-0.35c0.003-0.132,0.058-0.255,0.152-0.345   c0.008-0.008,0.048-0.049,0.105-0.111c0.056-0.062-0.239-0.348-0.494-0.764c-0.169-0.276-0.243-0.562-0.216-0.842   c0.041-0.392,0.278-0.709,0.632-0.845c0.366-0.142,0.796-0.051,1.115,0.235c0.328,0.283,0.508,0.656,0.518,1.074   C30.729,39.854,29.761,40.779,29.72,40.816z M34.273,39.232c-0.254,0.416-0.551,0.699-0.498,0.758   c0.056,0.061,0.17,0.168,0.218,0.269c0.028,0.062,0.043,0.127,0.045,0.195c0,0.129-0.046,0.253-0.138,0.346   c-0.088,0.095-0.217,0.151-0.354,0.151c-0.125,0-0.244-0.049-0.336-0.133c-0.041-0.039-1.011-0.955-0.988-1.963   c0.013-0.418,0.192-0.793,0.526-1.08c0.31-0.278,0.743-0.373,1.104-0.23c0.354,0.137,0.597,0.459,0.633,0.846   C34.514,38.671,34.441,38.955,34.273,39.232z M36.236,32.147c-0.77,0-1.396-0.625-1.396-1.395c0-0.769,0.626-1.395,1.396-1.395   c0.771,0,1.396,0.626,1.396,1.395C37.632,31.522,37.007,32.147,36.236,32.147z"/>
	<path d="M51.775,30.564c-0.012-0.097-0.024-0.191-0.041-0.281c-0.027-0.154-0.061-0.304-0.098-0.44   c-0.023-0.078-0.052-0.148-0.078-0.222c-0.033-0.095-0.067-0.186-0.107-0.271c-0.03-0.068-0.064-0.134-0.098-0.198   c-0.041-0.074-0.084-0.145-0.127-0.211c-0.037-0.056-0.072-0.112-0.109-0.163c-0.051-0.066-0.102-0.125-0.154-0.183   c-0.052-0.058-0.104-0.113-0.154-0.162c-0.062-0.06-0.127-0.117-0.19-0.166c-0.043-0.032-0.084-0.06-0.125-0.089   c-0.044-0.03-0.089-0.059-0.132-0.085c-0.041-0.024-0.079-0.046-0.117-0.065c-0.044-0.023-0.084-0.044-0.125-0.062   c-0.032-0.014-0.061-0.029-0.09-0.04c-0.066-0.026-0.125-0.046-0.174-0.062c-0.097-0.031-0.201-0.031-0.23-0.009   c-0.029,0.023-0.256,0.916-0.52,1.989c-0.366,1.504-0.601,2.627-0.283,3.487c0.171,0.458,0.385,0.974,0.601,1.536   c0.327,0.851,0.62,1.726,0.659,1.949s0.199,0.248,0.266,0.084c0.041-0.1,0.078-0.195,0.121-0.297   c0.088-0.178,0.149-0.354,0.223-0.537c0.074-0.185,0.151-0.373,0.217-0.547c0.141-0.384,0.264-0.748,0.369-1.095   c0.041-0.137,0.074-0.266,0.111-0.396c0.074-0.272,0.146-0.538,0.197-0.788c0.031-0.144,0.055-0.275,0.078-0.411   c0.035-0.193,0.064-0.384,0.089-0.564c0.015-0.129,0.028-0.256,0.038-0.378c0.014-0.173,0.021-0.333,0.021-0.489   c0.002-0.105,0.008-0.214,0.006-0.313C51.811,30.901,51.797,30.73,51.775,30.564z"/>
	<path d="M13.386,29.844c-0.262-1.073-0.489-1.966-0.519-1.989c-0.029-0.022-0.133-0.022-0.23,0.009   c-0.048,0.016-0.107,0.036-0.173,0.062c-0.029,0.011-0.058,0.026-0.09,0.04c-0.041,0.018-0.081,0.039-0.125,0.062   c-0.038,0.019-0.076,0.041-0.118,0.065c-0.042,0.026-0.087,0.055-0.131,0.085c-0.041,0.029-0.082,0.057-0.125,0.089   c-0.062,0.049-0.127,0.106-0.189,0.166c-0.052,0.049-0.103,0.104-0.155,0.162c-0.051,0.058-0.103,0.117-0.154,0.183   c-0.038,0.051-0.073,0.107-0.109,0.163c-0.043,0.066-0.086,0.137-0.127,0.211c-0.034,0.064-0.068,0.13-0.098,0.198   c-0.039,0.085-0.073,0.176-0.106,0.271c-0.027,0.074-0.055,0.144-0.078,0.222c-0.038,0.136-0.071,0.286-0.098,0.44   c-0.017,0.09-0.03,0.184-0.041,0.281c-0.022,0.166-0.036,0.337-0.043,0.522c-0.003,0.099,0.003,0.208,0.005,0.313   c0.002,0.156,0.009,0.316,0.023,0.489c0.01,0.122,0.023,0.249,0.038,0.378c0.024,0.18,0.054,0.371,0.089,0.564   c0.024,0.136,0.047,0.268,0.078,0.411c0.053,0.25,0.123,0.516,0.198,0.788c0.036,0.13,0.07,0.259,0.111,0.396   c0.105,0.347,0.228,0.711,0.369,1.095c0.066,0.174,0.144,0.362,0.213,0.547c0.074,0.184,0.136,0.359,0.223,0.537   c0.042,0.102,0.081,0.197,0.121,0.297c0.066,0.164,0.227,0.14,0.266-0.084s0.332-1.099,0.659-1.949   c0.217-0.562,0.431-1.078,0.601-1.536C13.988,32.471,13.754,31.348,13.386,29.844z"/>
</g>
<text x="0.0" y="75.2" font-size="3.2" font-weight="bold" font-family="Helvetica Neue, Helvetica, Arial-Unicode, Arial, Sans-serif" fill="#000000">Created by Henry Kennedy</text><text x="0.0" y="78.4" font-size="3.2" font-weight="bold" font-family="Helvetica Neue, Helvetica, Arial-Unicode, Arial, Sans-serif" fill="#000000">from the Noun Project</text></svg>